<svg width="154" height="72" viewBox="0 0 154 72" fill="none" xmlns="http://www.w3.org/2000/svg">
    <defs>
        <linearGradient id="Gradient1">
            <stop class="stop0" />
            <stop offset="0.4208" class="stop1"/>
            <stop offset="0.7712" class="stop2"/>
            <stop offset="1" class="stop3"/>
        </linearGradient>
        <style type="text/css">
            #logo1 { fill: url(#Gradient1); }
            .stop0 { stop-color: #4AA147; }
            .stop1 { stop-color: #00839D; }
            .stop2 { stop-color: #2B3990; }
            .stop3 { stop-color: #000036; }</style>
    </defs>
    <path id="logo1" d="M35.7006 0C15.984 0 0 16.1165 0 35.9966C0 55.8766 15.984 71.9931 35.7006 71.9931C49.4206 71.9931 61.3253 64.1851 67.3083 52.7369V19.2562C61.3321 7.80805 49.4206 0 35.7006 0ZM32.8111 49.6315L30.819 44.6615H20.0973L18.1052 49.6315H10.7829L21.9738 24.0617H29.0377L40.2694 49.6315H32.8111ZM61.9508 49.6315H55.3968V47.6572C54.1186 49.1928 52.1945 49.9606 49.6382 49.9606C47.8501 49.9606 46.2184 49.5424 44.7498 48.6992C43.2813 47.856 42.1119 46.6632 41.2552 45.1003C40.3986 43.5441 39.9702 41.7412 39.9702 39.6915C39.9702 37.6418 40.3986 35.8526 41.2552 34.3033C42.1119 32.7609 43.2745 31.5681 44.7498 30.7455C46.2252 29.916 47.8501 29.5047 49.6382 29.5047C51.977 29.5047 53.7922 30.1834 55.0704 31.5476V22.533H61.9508V49.6315ZM71.5711 24.0617H91.4577V29.6487H78.7439V35.2768H89.9347V40.8638H78.7439V49.6315H71.5711V24.0617ZM54.037 36.2639C54.7985 37.0934 55.1792 38.2382 55.1792 39.6984C55.1792 41.1859 54.7917 42.3445 54.0166 43.1877C53.2415 44.024 52.2625 44.449 51.0795 44.449C49.8693 44.449 48.8835 44.0308 48.1084 43.1877C47.3334 42.3445 46.9458 41.1859 46.9458 39.6984C46.9458 38.2382 47.3334 37.0934 48.1084 36.2639C48.8835 35.4344 49.8693 35.0231 51.0795 35.0231C52.2897 35.0231 53.2755 35.4344 54.037 36.2639ZM25.4548 31.15L28.7114 39.3282H22.1913L25.4548 31.15ZM94.1296 29.8338H101.01V49.6315H94.1296V29.8338ZM154 38.3068V49.6315H147.12V39.4379C147.12 38.0463 146.861 37.0248 146.338 36.3667C145.821 35.7087 145.087 35.3796 144.149 35.3796C143.108 35.3796 142.279 35.7429 141.647 36.4764C141.021 37.2099 140.702 38.3136 140.702 39.8012V49.6315H133.821V39.4379C133.821 36.7369 132.828 35.3865 130.85 35.3865C129.789 35.3865 128.94 35.7498 128.314 36.4833C127.689 37.2168 127.369 38.3205 127.369 39.8081V49.6315H120.489V29.8338H127.043V31.9177C127.77 31.1157 128.627 30.5124 129.633 30.108C130.632 29.7035 131.727 29.5047 132.91 29.5047C134.283 29.5047 135.521 29.7584 136.602 30.2725C137.69 30.7866 138.567 31.5613 139.247 32.6101C140.022 31.6093 141.001 30.8415 142.184 30.3068C143.367 29.7721 144.658 29.5047 146.059 29.5047C148.473 29.5047 150.397 30.2314 151.838 31.6984C153.279 33.1585 154 35.359 154 38.3068ZM100.609 21.2716C101.384 21.9434 101.765 22.8003 101.765 23.8492C101.765 24.946 101.377 25.8509 100.609 26.5707C99.8338 27.2905 98.8208 27.647 97.563 27.647C96.3052 27.647 95.2922 27.2973 94.5172 26.5844C93.7421 25.8783 93.3614 25.0009 93.3614 23.952C93.3614 22.9032 93.7489 22.0257 94.5172 21.3196C95.2922 20.6135 96.3052 20.2571 97.563 20.2571C98.8208 20.2571 99.8406 20.5998 100.609 21.2716ZM114.438 30.1834C115.559 29.7309 116.844 29.5047 118.293 29.5047V35.7498C117.667 35.6744 117.144 35.6401 116.736 35.6401C115.26 35.6401 114.111 36.0446 113.275 36.8466C112.439 37.6487 112.024 38.8826 112.024 40.5347V49.6315H105.144V29.8338H111.698V32.2057C112.405 31.3076 113.316 30.629 114.438 30.1834Z"/>
</svg>
