<svg width="90" height="42" viewBox="0 0 90 42" fill="none" xmlns="http://www.w3.org/2000/svg">
<path d="M21.1322 0.5C9.73752 0.5 0.5 9.67747 0.5 20.998C0.5 32.3186 9.73752 41.4961 21.1322 41.4961C29.0613 41.4961 35.9413 37.0498 39.3989 30.5308V11.4653C35.9452 4.94625 29.0613 0.5 21.1322 0.5ZM19.4623 28.7624L18.311 25.9323H12.1147L10.9634 28.7624H6.73169L13.1991 14.2018H17.2816L23.7726 28.7624H19.4623ZM36.3027 28.7624H32.515V27.6381C31.7763 28.5126 30.6644 28.9498 29.187 28.9498C28.1536 28.9498 27.2106 28.7117 26.3619 28.2315C25.5132 27.7514 24.8374 27.0721 24.3423 26.1821C23.8472 25.296 23.5997 24.2693 23.5997 23.1021C23.5997 21.9349 23.8472 20.9161 24.3423 20.0338C24.8374 19.1555 25.5093 18.4763 26.3619 18.0079C27.2145 17.5355 28.1536 17.3013 29.187 17.3013C30.5386 17.3013 31.5877 17.6878 32.3264 18.4646V13.3313H36.3027V28.7624ZM41.8625 14.2018H53.3554V17.3833H46.0078V20.5882H52.4753V23.7696H46.0078V28.7624H41.8625V14.2018ZM31.7292 21.1503C32.1692 21.6226 32.3893 22.2745 32.3893 23.106C32.3893 23.9531 32.1653 24.6128 31.7174 25.093C31.2695 25.5692 30.7037 25.8112 30.02 25.8112C29.3206 25.8112 28.7509 25.5731 28.3029 25.093C27.855 24.6128 27.631 23.9531 27.631 23.106C27.631 22.2745 27.855 21.6226 28.3029 21.1503C28.7509 20.6779 29.3206 20.4437 30.02 20.4437C30.7194 20.4437 31.2891 20.6779 31.7292 21.1503ZM15.2109 18.2382L17.093 22.8952H13.3249L15.2109 18.2382ZM54.8996 17.4887H58.8759V28.7624H54.8996V17.4887ZM89.5 22.3136V28.7624H85.5237V22.9577C85.5237 22.1652 85.3744 21.5836 85.0718 21.2088C84.7732 20.8341 84.3488 20.6467 83.8066 20.6467C83.2054 20.6467 82.7261 20.8536 82.3607 21.2713C81.9992 21.689 81.8145 22.3175 81.8145 23.1646V28.7624H77.8382V22.9577C77.8382 21.4196 77.2645 20.6506 76.1211 20.6506C75.5082 20.6506 75.017 20.8575 74.6555 21.2752C74.2941 21.6929 74.1094 22.3214 74.1094 23.1685V28.7624H70.133V17.4887H73.9208V18.6754C74.3412 18.2187 74.8363 17.8751 75.4178 17.6448C75.9954 17.4145 76.628 17.3013 77.3117 17.3013C78.1054 17.3013 78.8205 17.4457 79.4452 17.7385C80.0739 18.0313 80.5807 18.4724 80.9737 19.0696C81.4216 18.4997 81.9874 18.0625 82.6711 17.758C83.3548 17.4535 84.1013 17.3013 84.9107 17.3013C86.3056 17.3013 87.4175 17.7151 88.2505 18.5505C89.0835 19.3819 89.5 20.635 89.5 22.3136ZM58.6441 12.613C59.092 12.9956 59.3121 13.4835 59.3121 14.0808C59.3121 14.7054 59.0881 15.2207 58.6441 15.6305C58.1962 16.0404 57.6107 16.2434 56.8838 16.2434C56.1569 16.2434 55.5715 16.0443 55.1236 15.6383C54.6756 15.2363 54.4556 14.7366 54.4556 14.1393C54.4556 13.5421 54.6796 13.0424 55.1236 12.6403C55.5715 12.2383 56.1569 12.0353 56.8838 12.0353C57.6107 12.0353 58.2001 12.2305 58.6441 12.613ZM66.6361 17.6878C67.2844 17.4301 68.027 17.3013 68.8639 17.3013V20.8575C68.5024 20.8146 68.1999 20.7951 67.9641 20.7951C67.1115 20.7951 66.4475 21.0254 65.9642 21.4821C65.4809 21.9388 65.2412 22.6415 65.2412 23.5823V28.7624H61.2649V17.4887H65.0526V18.8393C65.4612 18.328 65.9878 17.9415 66.6361 17.6878Z" fill="white"/>
</svg>
